<?xml version="1.0" encoding="UTF-8" standalone="no"?>
<!-- Created with Inkscape (http://www.inkscape.org/) -->

<svg
   width="820"
   height="247.36603"
   viewBox="0 0 820 247.36602"
   version="1.1"
   id="svg1"
   xml:space="preserve"
   xmlns="http://www.w3.org/2000/svg"
   xmlns:svg="http://www.w3.org/2000/svg"><defs
     id="defs1" /><g
     id="g4"
     transform="translate(-102,-132.31699)"><g
       id="g3"
       transform="matrix(0.81999998,0,0,0.81999998,102,132.31699)"><g
         style="fill:none;stroke:#cb4b16;stroke-opacity:1"
         id="g1"
         transform="matrix(7.350782,-0.5603636,0.5603636,7.350782,519.79375,241.98371)"><path
           style="display:inline;fill:#cc33ff;fill-opacity:1;stroke:none;stroke-width:0.1;stroke-dasharray:none"
           id="path24"
           d="m 204.00001,789.95039 218.28135,378.07441 -436.562725,0 z"
           transform="matrix(-0.00712469,0.0934608,-0.0934608,-0.00712469,76.588769,-25.738443)" /><path
           d="m -15.211822,-18.044013 c 5.096,0 5.096,8 0,8 -5.095,0 -7.133,-8 -12.73895,-8 -4.585,0 -4.585,8 0,8 5.60595,0 7.64405,-8 12.74005,-8 z"
           stroke="#000000"
           stroke-width="2"
           stroke-linecap="round"
           stroke-linejoin="round"
           id="path1"
           style="fill:none;stroke:#33ffff;stroke-opacity:1" /></g><path
         style="fill:#ff0000;fill-opacity:1;stroke:none;stroke-width:0.1045;stroke-linecap:butt;stroke-linejoin:miter;stroke-dasharray:none;stroke-opacity:1"
         d="M 261.25031,73.670214 V 1.4190811e-5 L 0,150.83295 Z"
         id="path21" /><path
         style="fill:#ffcc00;fill-opacity:1;stroke:none;stroke-width:0.1045;stroke-linecap:butt;stroke-linejoin:miter;stroke-dasharray:none;stroke-opacity:1"
         d="M 261.25031,73.670214 125.75164,223.43571 0,150.83295 Z"
         id="path22" /><path
         style="fill:#6633ff;fill-opacity:1;stroke:none;stroke-width:0.1045;stroke-linecap:butt;stroke-linejoin:miter;stroke-dasharray:none;stroke-opacity:1"
         d="M 261.25031,73.670214 V 301.66589 L 125.75163,223.43571 Z"
         id="path23" /></g><g
       id="g2"
       transform="matrix(0.95211214,0,0,0.95211214,78.777587,46.777995)"
       style="stroke:#33ffff;stroke-opacity:1"><path
         style="fill:#cc0066;fill-opacity:1;stroke:#33ffff;stroke-width:1.31725;stroke-linecap:butt;stroke-linejoin:miter;stroke-dasharray:none;stroke-opacity:1"
         d="M 154.42684,327.75757 H 357.8277 m -203.40086,20 H 357.8277"
         id="path11-0"
         transform="matrix(1.868232,0,0,2.3566282,217.12834,-576.22388)" /><path
         d="m 509.22397,230.41521 v -2.26475 h 4.76885 v -22.72108 h -6.09456 v 4.27171 h -2.26474 v -6.53646 h 20.36428 v 6.53646 h -2.28316 v -4.27171 h -6.07614 v 22.72108 h 4.76885 v 2.26475 z m 19.40682,0 v -2.26475 h 2.02539 v -24.54392 h -2.26475 v -2.26475 h 5.91043 v 12.94402 q 1.27047,-1.93331 2.52252,-2.90918 1.7676,-1.39935 3.9587,-1.39935 5.54217,0 5.54217,7.14407 v 11.02911 h 2.28316 v 2.26475 h -5.91043 v -12.98085 q 0,-4.73203 -3.00124,-4.73203 -2.76189,0 -5.39488,4.75044 v 10.69769 h 2.04379 v 2.26475 z m 41.46507,-9.31675 h -14.19608 q 0.25778,2.48569 0.75491,3.59044 1.67555,3.77458 6.48122,3.77458 2.96442,0 6.42598,-1.93332 v 2.74347 q -3.22219,1.60189 -6.9047,1.60189 -4.76885,0 -7.71486,-2.92759 -2.9276,-2.9276 -2.9276,-7.67804 0,-4.62155 2.72506,-7.45708 2.70664,-2.83553 7.16248,-2.83553 8.19359,0 8.19359,9.99801 z m -14.15925,-2.26475 h 10.29261 v -0.84697 q 0,-5.74472 -4.58472,-5.74472 -2.83554,0 -4.38219,2.26474 -1.08634,1.58348 -1.3257,4.32695 z m 45.09233,3.40633 -1.82285,5.91042 h 2.633 v 2.26475 h -6.37074 v -2.26475 h 1.36253 l 7.75168,-24.98583 h 3.47997 l 7.73327,24.98583 h 1.36253 v 2.26475 h -8.04628 v -2.26475 h 2.89077 l -1.84126,-5.91042 z m 0.71809,-2.28316 h 7.71485 l -3.82981,-12.42847 h -0.0368 z m 36.42002,9.33516 q -3.05649,1.58348 -6.18662,1.58348 -1.69395,0 -2.83553,-0.40508 -1.12317,-0.38666 -1.80443,-1.23364 -0.66285,-0.86539 -0.95745,-2.2095 -0.27619,-1.34412 -0.27619,-3.2222 v -20.19856 h -6.81265 v -2.26475 h 10.43992 v 21.24808 q 0,1.71237 0.12889,2.79871 0.12888,1.08634 0.49714,1.69396 0.38666,0.60761 1.08634,0.82856 0.69967,0.22095 1.85966,0.22095 2.28316,0 4.86092,-1.41777 z m 22.4449,-8.19358 h -14.19608 q 0.25778,2.48569 0.75492,3.59044 1.67554,3.77458 6.48122,3.77458 2.96442,0 6.42598,-1.93332 v 2.74347 q -3.2222,1.60189 -6.90471,1.60189 -4.76885,0 -7.71486,-2.92759 -2.92759,-2.9276 -2.92759,-7.67804 0,-4.62155 2.72505,-7.45708 2.70665,-2.83553 7.16249,-2.83553 8.19358,0 8.19358,9.99801 z m -14.15925,-2.26475 h 10.29261 v -0.84697 q 0,-5.74472 -4.58472,-5.74472 -2.83553,0 -4.38219,2.26474 -1.08634,1.58348 -1.3257,4.32695 z m 23.4944,16.58971 h 4.5479 v 2.26474 h -10.45833 v -2.26474 h 2.26475 v -22.72109 h -2.26475 v -2.28315 h 5.91043 v 4.08758 q 1.38094,-2.04379 2.68823,-3.05648 1.87808,-1.473 4.05077,-1.473 3.03807,0 4.91615,2.63299 1.87808,2.65141 1.87808,6.97836 0,5.26599 -2.4857,8.26723 -2.46728,3.01966 -6.79423,3.01966 -1.6203,0 -4.2533,-0.46031 z m 0,-7.69645 q 2.50411,0.42349 3.90346,0.42349 3.0749,0 4.41901,-1.97014 1.34412,-1.97014 1.34412,-6.6101 0,-6.86789 -3.94029,-6.86789 -3.01965,0 -5.7263,4.52949 z m 17.08685,2.68824 v -2.26475 h 2.02538 v -24.54392 h -2.26474 v -2.26475 h 5.91043 v 12.94402 q 1.27046,-1.93331 2.52252,-2.90918 1.7676,-1.39935 3.9587,-1.39935 5.54217,0 5.54217,7.14407 v 11.02911 h 2.28316 v 2.26475 h -5.91043 v -12.98085 q 0,-4.73203 -3.00124,-4.73203 -2.76189,0 -5.39488,4.75044 v 10.69769 h 2.04379 v 2.26475 z m 52.60465,-11.02912 v 8.76437 h 5.22917 v 2.26475 h -12.50213 v -2.26475 h 3.62728 v -22.72108 h -3.62728 v -2.26475 h 12.1707 q 6.94153,0 6.94153,6.64693 0,4.43743 -2.57776,7.01519 -2.57775,2.55934 -7.08883,2.55934 z m 0,-2.26474 h 2.04379 q 5.92885,0 5.92885,-6.75741 0,-4.93456 -4.27172,-4.93456 h -3.70092 z m 23.53124,0.36825 v 10.66086 h 6.62852 v 2.26475 h -14.85892 v -2.26475 h 4.60313 v -15.44813 h -4.76885 v -2.28315 h 8.39612 v 3.88505 q 1.36253,-1.95173 2.59617,-2.9276 1.76761,-1.39935 3.8114,-1.39935 2.17268,0 4.19806,1.25205 v 5.45012 h -2.28315 l -0.36825,-2.87236 q -1.03111,-0.66285 -2.17268,-0.66285 -3.38791,0 -5.78155,4.34536 z m 24.17569,-7.51232 q 4.32695,0 6.79423,2.78029 2.48569,2.7803 2.48569,7.64121 0,4.93456 -2.48569,7.69645 -2.4857,2.78029 -6.94153,2.78029 -3.77458,0 -6.14979,-2.30157 -2.96442,-2.85394 -2.96442,-8.15676 0,-4.87932 2.48569,-7.65962 2.48569,-2.78029 6.77582,-2.78029 z m 0,2.26474 q -5.33964,0 -5.33964,8.13835 0,8.23041 5.33964,8.23041 5.35805,0 5.35805,-8.23041 0,-8.13835 -5.35805,-8.13835 z m 14.25132,24.5071 v -5.8736 h 2.26474 l 0.57079,4.01394 q 1.25205,0.97586 2.70664,0.97586 2.43046,0 3.46156,-1.7676 1.04952,-1.76761 1.04952,-6.02091 v -15.37448 h -8.17517 v -2.28315 h 11.82085 v 18.7808 q 0,4.23488 -2.08062,6.59169 -2.08061,2.35681 -5.78154,2.35681 -2.55934,0 -5.83677,-1.39936 z m 9.46405,-30.85943 v -4.5479 h 4.45583 v 4.5479 z m 30.58321,15.20877 h -14.19607 q 0.25778,2.48569 0.75491,3.59044 1.67555,3.77458 6.48122,3.77458 2.96442,0 6.42598,-1.93332 v 2.74347 q -3.2222,1.60189 -6.9047,1.60189 -4.76886,0 -7.71486,-2.92759 -2.9276,-2.9276 -2.9276,-7.67804 0,-4.62155 2.72506,-7.45708 2.70664,-2.83553 7.16248,-2.83553 8.19358,0 8.19358,9.99801 z m -14.15925,-2.26475 h 10.29262 v -0.84697 q 0,-5.74472 -4.58473,-5.74472 -2.83553,0 -4.38218,2.26474 -1.08634,1.58348 -1.32571,4.32695 z m 36.88035,10.73452 q -2.98284,1.30729 -7.25455,1.30729 -5.21075,0 -8.19358,-2.90918 -2.96442,-2.90918 -2.96442,-7.7701 0,-4.78726 2.90918,-7.49391 2.89077,-2.72505 8.17517,-2.72505 3.92187,0 7.08883,0.99428 v 5.70789 h -2.28315 l -0.64444,-3.62728 q -2.22792,-0.81015 -4.36378,-0.81015 -3.24061,0 -5.15551,2.17268 -1.7676,2.17268 -1.7676,5.83678 0,4.05076 1.98855,6.13138 2.13586,2.08062 5.92884,2.08062 3.09331,0 6.53646,-1.49142 z m 21.19285,-0.27619 q -3.03808,1.58348 -6.18662,1.58348 -2.96442,0 -4.23489,-1.38094 -1.27046,-1.36253 -1.27046,-4.58473 V 213.3836 h -5.11869 v -2.50411 h 5.11869 v -5.17392 h 3.62727 v 5.17392 h 7.84374 v 2.50411 h -7.84374 v 9.88754 q 0,2.94601 0.5892,3.90346 0.5892,0.97586 2.33839,0.97586 1.95173,0 5.13711,-1.41776 z"
         id="text25"
         style="font-size:37.7089px;line-height:1.2;font-family:'GoMono Nerd Font';-inkscape-font-specification:'GoMono Nerd Font';font-variant-ligatures:discretionary-ligatures historical-ligatures;font-variant-numeric:slashed-zero;letter-spacing:0px;fill:#33ffff;stroke-width:0.0754178"
         aria-label="The Aleph Project" /></g></g></svg>
