<?xml version="1.0" encoding="UTF-8" standalone="no"?>
<!-- Created with Inkscape (http://www.inkscape.org/) -->

<svg
   width="985.00488"
   height="248.26064"
   viewBox="0 0 985.00488 248.26063"
   version="1.1"
   id="svg1"
   xml:space="preserve"
   xmlns="http://www.w3.org/2000/svg"
   xmlns:svg="http://www.w3.org/2000/svg"><defs
     id="defs1" /><g
     id="g3"
     transform="matrix(0.82296556,0,0,0.82296556,0,3.1835425e-6)"><g
       style="fill:none;stroke:#cb4b16;stroke-opacity:1"
       id="g1"
       transform="matrix(7.350782,-0.5603636,0.5603636,7.350782,519.79375,241.98371)"><path
         style="display:inline;fill:#cc33ff;fill-opacity:1;stroke:none;stroke-width:0.1;stroke-dasharray:none"
         id="path24"
         d="M 204.00001,789.95039 422.28136,1168.0248 H -14.281365 Z"
         transform="matrix(-0.00712469,0.0934608,-0.0934608,-0.00712469,76.588769,-25.738443)" /><path
         d="m -15.211822,-18.044013 c 5.096,0 5.096,8 0,8 -5.095,0 -7.133,-8 -12.73895,-8 -4.585,0 -4.585,8 0,8 5.60595,0 7.64405,-8 12.74005,-8 z"
         stroke="#000000"
         stroke-width="2"
         stroke-linecap="round"
         stroke-linejoin="round"
         id="path1"
         style="fill:none;stroke:#33ffff;stroke-opacity:1" /></g><path
       style="fill:#ff0000;fill-opacity:1;stroke:none;stroke-width:0.1045;stroke-linecap:butt;stroke-linejoin:miter;stroke-dasharray:none;stroke-opacity:1"
       d="M 261.25031,73.670214 V 1.4190811e-5 L 0,150.83295 Z"
       id="path21" /><path
       style="fill:#ffcc00;fill-opacity:1;stroke:none;stroke-width:0.1045;stroke-linecap:butt;stroke-linejoin:miter;stroke-dasharray:none;stroke-opacity:1"
       d="M 261.25031,73.670214 125.75164,223.43571 0,150.83295 Z"
       id="path22" /><path
       style="fill:#6633ff;fill-opacity:1;stroke:none;stroke-width:0.1045;stroke-linecap:butt;stroke-linejoin:miter;stroke-dasharray:none;stroke-opacity:1"
       d="M 261.25031,73.670214 V 301.66589 L 125.75163,223.43571 Z"
       id="path23" /></g><g
     id="g2"
     transform="matrix(1.3818318,0,0,1.3818318,-289.04405,-224.89206)"><path
       style="fill:#cc0066;fill-opacity:1;stroke:#33ffff;stroke-width:2.63158;stroke-linecap:butt;stroke-linejoin:miter;stroke-dasharray:none;stroke-opacity:1"
       d="M 560.19739,233.56225 H 922.00001 M 560.19739,278.43774 H 922.00001"
       id="path11-0" /><path
       d="m 563.61589,266.15912 v -2.15629 h 4.54048 v -21.63302 h -5.8027 v 4.06715 h -2.15629 v -6.22344 h 19.38908 v 6.22344 h -2.17382 v -4.06715 h -5.78517 v 21.63302 h 4.54048 v 2.15629 z m 18.47748,0 v -2.15629 h 1.92839 v -23.36857 h -2.15629 v -2.15629 h 5.62739 v 12.32416 q 1.20962,-1.84074 2.40172,-2.76987 1.68295,-1.33234 3.76912,-1.33234 5.27677,0 5.27677,6.80195 v 10.50096 h 2.17383 v 2.15629 h -5.62739 V 253.7999 q 0,-4.50542 -2.85753,-4.50542 -2.62962,0 -5.13652,4.52295 v 10.1854 h 1.94592 v 2.15629 z m 39.47938,-8.87059 H 608.0565 q 0.24543,2.36666 0.71876,3.41851 1.5953,3.59381 6.17085,3.59381 2.82246,0 6.11825,-1.84073 v 2.61209 q -3.06789,1.52518 -6.57406,1.52518 -4.54048,0 -7.34541,-2.7874 -2.78739,-2.7874 -2.78739,-7.31035 0,-4.40023 2.59456,-7.09998 2.57702,-2.69974 6.81948,-2.69974 7.80121,0 7.80121,9.51923 z m -13.48119,-2.15629 h 9.79972 v -0.80642 q 0,-5.46961 -4.36517,-5.46961 -2.69975,0 -4.17233,2.15629 -1.03432,1.50765 -1.26222,4.11974 z m 42.93295,3.2432 -1.73555,5.62739 h 2.50691 v 2.15629 h -6.06566 v -2.15629 h 1.29728 l 7.38047,-23.78931 h 3.31332 l 7.36294,23.78931 h 1.29728 v 2.15629 h -7.66096 v -2.15629 h 2.75234 l -1.75308,-5.62739 z m 0.68371,-2.17382 h 7.3454 l -3.6464,-11.8333 h -0.0351 z m 34.67594,8.88812 q -2.91012,1.50765 -5.89036,1.50765 -1.61283,0 -2.69974,-0.38568 -1.06938,-0.36815 -1.71802,-1.17456 -0.63111,-0.82395 -0.9116,-2.1037 -0.26296,-1.27975 -0.26296,-3.06789 v -19.2313 h -6.4864 v -2.15629 h 9.93997 v 20.23055 q 0,1.63037 0.12271,2.66469 0.12272,1.03432 0.47333,1.61283 0.36815,0.57852 1.03432,0.78889 0.66617,0.21037 1.77061,0.21037 2.17382,0 4.62814,-1.34987 z m 21.37006,-7.80121 h -13.51625 q 0.24543,2.36666 0.71876,3.41851 1.5953,3.59381 6.17084,3.59381 2.82246,0 6.11826,-1.84073 v 2.61209 q -3.06789,1.52518 -6.57406,1.52518 -4.54048,0 -7.34541,-2.7874 -2.7874,-2.7874 -2.7874,-7.31035 0,-4.40023 2.59456,-7.09998 2.57703,-2.69974 6.81949,-2.69974 7.80121,0 7.80121,9.51923 z m -13.48119,-2.15629 h 9.79972 v -0.80642 q 0,-5.46961 -4.36517,-5.46961 -2.69975,0 -4.17233,2.15629 -1.03432,1.50765 -1.26222,4.11974 z m 22.36931,15.79526 h 4.33011 v 2.15629 h -9.9575 v -2.15629 h 2.15629 v -21.63302 h -2.15629 v -2.17382 h 5.62739 v 3.89184 q 1.31481,-1.94592 2.5595,-2.91012 1.78814,-1.40246 3.85678,-1.40246 2.89258,0 4.68072,2.50691 1.78815,2.52443 1.78815,6.64417 0,5.01381 -2.36666,7.87134 -2.34913,2.87505 -6.46887,2.87505 -1.54271,0 -4.04962,-0.43827 z m 0,-7.32788 q 2.38419,0.40321 3.71653,0.40321 2.92765,0 4.2074,-1.8758 1.27975,-1.87579 1.27975,-6.29356 0,-6.53899 -3.7516,-6.53899 -2.87505,0 -5.45208,4.31258 z m 16.26859,2.5595 v -2.15629 h 1.92839 v -23.36857 h -2.15629 v -2.15629 h 5.62739 v 12.32416 q 1.20963,-1.84074 2.40172,-2.76987 1.68296,-1.33234 3.76913,-1.33234 5.27677,0 5.27677,6.80195 v 10.50096 h 2.17382 v 2.15629 h -5.62739 V 253.7999 q 0,-4.50542 -2.85752,-4.50542 -2.62962,0 -5.13653,4.52295 v 10.1854 h 1.94592 v 2.15629 z m 50.08552,-10.50096 v 8.34467 h 4.97875 v 2.15629 h -11.90342 v -2.15629 h 3.45357 v -21.63302 h -3.45357 v -2.15629 h 11.58787 q 6.60911,0 6.60911,6.32862 0,4.22493 -2.45431,6.67924 -2.45431,2.43678 -6.74936,2.43678 z m 0,-2.15629 h 1.94592 q 5.64492,0 5.64492,-6.4338 0,-4.69826 -4.06714,-4.69826 h -3.5237 z m 22.40438,0.35062 v 10.15034 h 6.31109 v 2.15629 h -14.14737 v -2.15629 h 4.38271 v -14.70835 h -4.54048 v -2.17382 h 7.99405 v 3.699 q 1.29728,-1.85827 2.47184,-2.7874 1.68296,-1.33234 3.62888,-1.33234 2.06863,0 3.99702,1.19209 v 5.18912 h -2.17382 l -0.35061,-2.7348 q -0.98173,-0.63111 -2.06864,-0.63111 -3.22567,0 -5.50467,4.13727 z m 23.01796,-7.15257 q 4.11974,0 6.46887,2.64715 2.36666,2.64715 2.36666,7.27529 0,4.69826 -2.36666,7.32788 -2.36666,2.64715 -6.60911,2.64715 -3.59382,0 -5.85529,-2.19135 -2.82246,-2.71728 -2.82246,-7.76615 0,-4.64567 2.36666,-7.29282 2.36666,-2.64715 6.45133,-2.64715 z m 0,2.15629 q -5.08393,0 -5.08393,7.74862 0,7.83627 5.08393,7.83627 5.10147,0 5.10147,-7.83627 0,-7.74862 -5.10147,-7.74862 z m 13.56883,23.33351 v -5.59233 h 2.15629 l 0.54346,3.82172 q 1.19209,0.92913 2.57703,0.92913 2.31407,0 3.29579,-1.68296 0.99926,-1.68296 0.99926,-5.73257 v -14.63823 h -7.78368 v -2.17382 h 11.25478 v 17.88143 q 0,4.03208 -1.98098,6.27603 -1.98099,2.24394 -5.50468,2.24394 -2.43678,0 -5.55727,-1.33234 z m 9.01084,-29.38164 v -4.33011 h 4.24246 v 4.33011 z m 29.11869,14.48045 H 866.6009 q 0.24543,2.36666 0.71876,3.41851 1.5953,3.59381 6.17084,3.59381 2.82246,0 6.11826,-1.84073 v 2.61209 q -3.06789,1.52518 -6.57406,1.52518 -4.54048,0 -7.34541,-2.7874 -2.78739,-2.7874 -2.78739,-7.31035 0,-4.40023 2.59456,-7.09998 2.57702,-2.69974 6.81948,-2.69974 7.80121,0 7.80121,9.51923 z m -13.48119,-2.15629 h 9.79972 v -0.80642 q 0,-5.46961 -4.36517,-5.46961 -2.69975,0 -4.17233,2.15629 -1.03432,1.50765 -1.26222,4.11974 z m 35.11419,10.22046 q -2.83999,1.24469 -6.90714,1.24469 -4.96121,0 -7.80121,-2.76987 -2.82246,-2.76987 -2.82246,-7.398 0,-4.55801 2.76987,-7.13504 2.75234,-2.59456 7.78368,-2.59456 3.73406,0 6.74936,0.94666 v 5.43455 h -2.17382 l -0.61358,-3.45357 q -2.12122,-0.77135 -4.1548,-0.77135 -3.08542,0 -4.90862,2.06863 -1.68296,2.06864 -1.68296,5.55727 0,3.85678 1.89333,5.83776 2.03357,1.98098 5.64492,1.98098 2.94517,0 6.22343,-1.41999 z m 20.17798,-0.26296 q -2.89258,1.50765 -5.89035,1.50765 -2.82246,0 -4.03209,-1.31481 -1.20962,-1.29728 -1.20962,-4.36517 v -10.97429 h -4.87357 v -2.38419 h 4.87357 v -4.92616 h 3.45357 v 4.92616 h 7.46812 v 2.38419 h -7.46812 v 9.41404 q 0,2.80493 0.56098,3.71654 0.56099,0.92913 2.22641,0.92913 1.85827,0 4.8911,-1.34987 z"
       id="text25"
       style="font-size:35.9031px;line-height:1.2;font-family:'GoMono Nerd Font';-inkscape-font-specification:'GoMono Nerd Font';font-variant-ligatures:discretionary-ligatures historical-ligatures;font-variant-numeric:slashed-zero;letter-spacing:0px;fill:#33ffff;stroke:#33ffff;stroke-width:0.0718062"
       aria-label="The Aleph Project" /></g></svg>
