<?xml version="1.0" encoding="UTF-8" standalone="no"?>
<!-- Created with Inkscape (http://www.inkscape.org/) -->

<svg
   width="985.00488"
   height="248.26064"
   viewBox="0 0 985.00488 248.26063"
   version="1.1"
   id="svg1"
   xml:space="preserve"
   xmlns="http://www.w3.org/2000/svg"
   xmlns:svg="http://www.w3.org/2000/svg"><defs
     id="defs1" /><g
     id="g3"
     transform="matrix(0.82296556,0,0,0.82296556,0,3.1835425e-6)"><g
       style="fill:none;stroke:#cb4b16;stroke-opacity:1"
       id="g1"
       transform="matrix(7.350782,-0.5603636,0.5603636,7.350782,519.79375,241.98371)"><path
         style="display:inline;fill:#cc33ff;fill-opacity:1;stroke:none;stroke-width:0.1;stroke-dasharray:none"
         id="path24"
         d="M 204.00001,789.95039 422.28136,1168.0248 H -14.281365 Z"
         transform="matrix(-0.00712469,0.0934608,-0.0934608,-0.00712469,76.588769,-25.738443)" /><path
         d="m -15.211822,-18.044013 c 5.096,0 5.096,8 0,8 -5.095,0 -7.133,-8 -12.73895,-8 -4.585,0 -4.585,8 0,8 5.60595,0 7.64405,-8 12.74005,-8 z"
         stroke="#000000"
         stroke-width="2"
         stroke-linecap="round"
         stroke-linejoin="round"
         id="path1"
         style="fill:none;stroke:#33ffff;stroke-opacity:1" /></g><path
       style="fill:#ff0000;fill-opacity:1;stroke:none;stroke-width:0.1045;stroke-linecap:butt;stroke-linejoin:miter;stroke-dasharray:none;stroke-opacity:1"
       d="M 261.25031,73.670214 V 1.4190811e-5 L 0,150.83295 Z"
       id="path21" /><path
       style="fill:#ffcc00;fill-opacity:1;stroke:none;stroke-width:0.1045;stroke-linecap:butt;stroke-linejoin:miter;stroke-dasharray:none;stroke-opacity:1"
       d="M 261.25031,73.670214 125.75164,223.43571 0,150.83295 Z"
       id="path22" /><path
       style="fill:#6633ff;fill-opacity:1;stroke:none;stroke-width:0.1045;stroke-linecap:butt;stroke-linejoin:miter;stroke-dasharray:none;stroke-opacity:1"
       d="M 261.25031,73.670214 V 301.66589 L 125.75163,223.43571 Z"
       id="path23" /></g><g
     id="g2"
     transform="matrix(1.3818318,0,0,1.3818318,-289.04405,-224.89206)"><path
       style="fill:#cc0066;fill-opacity:1;stroke:#33ffff;stroke-width:2.63158;stroke-linecap:butt;stroke-linejoin:miter;stroke-dasharray:none;stroke-opacity:1"
       d="M 560.19739,233.56225 H 922.00001 M 560.19739,278.43774 H 922.00001"
       id="path11-0" /><text
       xml:space="preserve"
       style="font-style:normal;font-variant:normal;font-weight:normal;font-stretch:normal;font-size:35.9031px;line-height:1.2;font-family:'GoMono Nerd Font';-inkscape-font-specification:'GoMono Nerd Font';font-variant-ligatures:discretionary-ligatures historical-ligatures;font-variant-numeric:slashed-zero;text-align:start;letter-spacing:0px;writing-mode:lr-tb;direction:ltr;text-anchor:start;fill:#33ffff;fill-opacity:1;stroke:#33ffff;stroke-width:0.0718062;stroke-dasharray:none;stroke-opacity:1"
       x="559.11047"
       y="266.15912"
       id="text25"><tspan
         x="559.11047"
         y="266.15912"
         style="font-style:normal;font-variant:normal;font-weight:normal;font-stretch:normal;font-family:'GoMono Nerd Font';-inkscape-font-specification:'GoMono Nerd Font';text-align:start;text-anchor:start;fill:#33ffff;fill-opacity:1;stroke:#33ffff;stroke-width:0.0718062;stroke-opacity:1"
         id="tspan31">The Aleph Project</tspan></text></g></svg>
